<?xml version="1.0" encoding="UTF-8"?> <svg xmlns="http://www.w3.org/2000/svg" xmlns:xlink="http://www.w3.org/1999/xlink" version="1.1" id="Layer_1" x="0px" y="0px" viewBox="0 0 164.94 249.08" style="enable-background:new 0 0 164.94 249.08;" xml:space="preserve"> <style type="text/css"> .st0{fill:#FFFFFF;} .st1{fill:#0096DB;} .st2{fill:none;stroke:#FFFFFF;stroke-width:0.75;stroke-miterlimit:10;} </style> <path class="st0" d="M5.27,101.33c0.65,4.31,3.55,6.49,7.65,6.49s6.7-2.08,6.7-5.73s-1.86-5.35-7.83-7.18 c-7.52-2.25-10.33-4.79-10.33-9.84c0-5.77,4.41-9.38,10.99-9.38c7.74,0,11.03,4.45,11.41,9.55h-4.85c-0.52-3.41-2.43-5.63-6.67-5.63 c-3.94,0-5.9,1.91-5.9,4.99s1.82,4.37,7.34,6.03c8.74,2.63,10.89,6.01,10.89,10.89c0,5.83-4.01,10.23-11.97,10.23 c-7.38,0-11.81-3.91-12.31-10.43L5.27,101.33L5.27,101.33z"></path> <path class="st0" d="M52.24,76.15h11.64c9.22,0,15.87,5.85,15.87,16.78c0,11.5-6.01,18.43-16.4,18.43h-11.1v-35.2L52.24,76.15z M57.16,107.37h6.02c7.69,0,11.48-5.33,11.48-14.31c0-8.2-4.42-12.87-11.42-12.87h-6.07L57.16,107.37L57.16,107.37z"></path> <path class="st0" d="M82.52,111.35v-35.2h6.43c13.36,24.32,15.22,27.71,15.84,29.28h0.07c-0.33-4.59-0.38-10.28-0.38-16V76.15h4.6 v35.2h-6.02c-14.3-26.41-15.44-28.73-16.15-30.18h-0.05c0.26,4.53,0.22,10.47,0.22,16.78v13.4h-4.57H82.52z"></path> <polygon class="st0" points="136.29,95 120.56,95 120.56,107.22 137.87,107.22 137.23,111.35 115.76,111.35 115.76,76.15 137.02,76.15 137.02,80.3 120.56,80.3 120.56,90.81 136.29,90.81 136.29,94.99 "></polygon> <path class="st1" d="M16.05,128.9c0-3.46,0.04-7.14,0.12-9.17h-0.09c-0.89,3.51-3.62,11.64-5.52,17.08H8.15 c-1.43-4.56-4.23-13.44-5.13-17.12H2.91c0.15,2.21,0.22,6.43,0.22,9.7v7.42H0.65v-19.02h3.97c1.86,5.4,4.25,12.95,4.88,15.62h0.04 c0.38-1.95,3.27-10.18,5.22-15.62h3.86v19.02h-2.58v-7.91H16.05z"></path> <polyline class="st1" points="38.94,136.78 42.19,136.78 34.52,117.89 31.24,117.89 38.94,136.78 "></polyline> <path class="st1" d="M51.4,128.31v8.5h-2.62v-19.02h6.92c3.4,0,5.8,1.69,5.8,4.95c0,2.72-1.58,3.94-3.09,4.44 c1.97,0.65,2.78,2.21,2.78,4.75v0.37c0,1.74,0.05,3.39,0.26,4.5h-2.6c-0.26-0.77-0.33-2.44-0.33-4.49v-0.4c0-2.6-0.94-3.6-3.95-3.6 h-3.18H51.4z M51.4,126.14h3.39c2.36,0,4.03-0.67,4.03-3.23c0-1.98-1.35-2.96-3.48-2.96h-3.95v6.18L51.4,126.14z"></path> <polygon class="st1" points="81.61,136.78 84.86,136.78 77.19,117.89 73.91,117.89 "></polygon> <polyline class="st1" points="93.77,120.05 88.28,120.05 88.28,117.79 101.94,117.79 101.94,120.05 96.44,120.05 96.44,136.81 93.77,136.81 93.77,120.05 "></polyline> <polygon class="st1" points="107.28,117.79 109.92,117.79 109.92,125.7 118.44,125.7 118.44,117.79 121.1,117.79 121.1,136.81 118.44,136.81 118.44,127.96 109.92,127.96 109.92,136.81 107.28,136.81 "></polygon> <path class="st1" d="M143.76,127.19c0,5.46-2.56,9.9-8.21,9.9c-5.65,0-7.99-4.25-7.99-9.89c0-4.92,2.58-9.66,8.22-9.66 C141.12,117.54,143.76,121.78,143.76,127.19L143.76,127.19z M130.31,127.16c0,4.34,1.75,7.73,5.38,7.73c3.63,0,5.36-3.31,5.36-7.68 c0-4.37-1.6-7.48-5.37-7.48S130.31,123.06,130.31,127.16z"></path> <path class="st1" d="M150.24,136.81v-19.02h3.47c7.22,13.14,8.22,14.97,8.56,15.82h0.04c-0.18-2.48-0.21-5.55-0.21-8.64v-7.17h2.48 v19.02h-3.25c-7.72-14.26-8.34-15.52-8.72-16.3h-0.03c0.14,2.45,0.12,5.65,0.12,9.06v7.24h-2.47L150.24,136.81z"></path> <polygon class="st1" points="75.94,122.87 70.23,136.77 66.91,136.77 72.62,122.87 "></polygon> <polygon class="st1" points="33.34,123.05 27.7,136.78 24.42,136.78 30.06,123.05 "></polygon> <path class="st0" d="M151.55,90.59c-1.98-3.75-5.35-10.01-7.66-14.45h-5.56l11.4,20.45c0.17,0.24,0.28,0.63,0.28,0.98v13.77h4.89 V97.53c0-0.11,0-0.2,0.01-0.29L151.55,90.59L151.55,90.59z"></path> <path class="st0" d="M42.15,92.27l7.52-16.12H44.5c-1.69,3.22-5.33,12.65-7.19,16.12H42.15z"></path> <path class="st0" d="M157.24,92.27l7.52-16.12h-5.17c-1.69,3.22-5.33,12.65-7.19,16.12H157.24z"></path> <path class="st0" d="M37.55,92.77c-1.47-2.87-5.95-11.13-8.8-16.62h-5.56l11.4,20.45c0.17,0.24,0.28,0.63,0.28,0.98v13.77h4.89 V97.54c0-0.17,0.01-0.31,0.03-0.43"></path> <polygon class="st1" points="116.11,67.97 164.95,17.46 164.95,3.08 116.11,53.43 62.69,0 62.69,42.79 19.9,0 19.9,42.72 0,22.82 0,37.88 30.1,67.98 30.1,25.19 72.88,67.98 72.88,24.75 116.11,67.98 "></polygon> <line class="st2" x1="0" y1="145.36" x2="164.58" y2="145.36"></line> <g> <path class="st0" d="M64.91,166.52c-3.46,0-7.27,2.12-9.66,4.12l0.19,0.27c3.71-2.6,8.86-4.29,10.28-1.76 c0.75,1.34-0.52,4.04-2.32,6.18c0.43-0.94,0.15-2.76-2.35-2.76c-4.16,0-12.33,5.5-12.33,11.14c0,2.26,1.56,3.73,4.14,3.73 c6.9,0,16.26-11.31,16.26-16.99C69.13,168.45,67.97,166.52,64.91,166.52z M55.23,181.36c-1.19,0-1.77-0.92-1.47-1.98 c0.62-2.2,4.59-5.46,7.3-5.46c1.98,0,1.83,1.77,0.67,3.28l-0.64,0.71C58.79,180.16,56.66,181.36,55.23,181.36z"></path> <path class="st0" d="M80.18,172.49c-0.64-0.78-1.66-1.13-2.4-1.13h-4.04l-0.68,2.56h3.81l0.36,0.04c0,0,0.35,0.04,0.54,0.3 c0.16,0.22,0.18,0.54,0.07,0.96l-0.18,0.67h-2.4c-2.06,0-4.94,1.48-5.58,3.87c-0.32,1.19-0.04,2.23,0.58,2.99 c0.61,0.75,1.77,1.17,3.03,1.17h2.22l0,0h2.82l1.32-4.94l0.97-3.63C81.01,173.91,80.6,173,80.18,172.49z M73.79,181.36 c-0.4,0-0.74-0.14-0.94-0.4c-0.22-0.27-0.28-0.65-0.18-1.04c0.23-0.85,1.15-1.52,2.09-1.52h2.22l-0.79,2.96H73.79z"></path> <path class="st0" d="M107.9,171.36c-1.09,0-2.11,0.32-2.93,0.93c-0.83,0.62-1.29,1.36-1.57,2.38c-0.59,2.22,1.15,3.28,2.55,4.04 c1,0.54,1.87,1.01,1.68,1.71c-0.13,0.5-0.35,0.93-1.59,0.93h-3.77l-0.68,2.56h4.17c1.12,0,2.15-0.23,2.98-0.87 c0.83-0.64,1.3-1.53,1.6-2.62c0.28-1.04,0.09-2.03-0.58-2.77c-0.56-0.62-1.36-1.05-2.06-1.43c-0.9-0.49-1.75-0.94-1.61-1.5 c0.09-0.34,0.43-0.81,1.15-0.81h3.67l0.68-2.56H107.9z"></path> <path class="st0" d="M86.03,171.36c-1.09,0-2.11,0.32-2.93,0.93c-0.83,0.62-1.29,1.36-1.57,2.38c-0.59,2.22,1.15,3.28,2.55,4.04 c1,0.54,1.87,1.01,1.68,1.71c-0.13,0.5-0.35,0.93-1.59,0.93h-3.77l-0.68,2.56h4.17c1.12,0,2.15-0.23,2.98-0.87 c0.83-0.64,1.3-1.53,1.6-2.62c0.28-1.04,0.09-2.03-0.58-2.77c-0.56-0.62-1.36-1.05-2.06-1.43c-0.9-0.49-1.75-0.94-1.6-1.5 c0.09-0.34,0.43-0.81,1.15-0.81h3.66l0.69-2.56H86.03z"></path> <path class="st0" d="M91.72,171.36l-3.27,12.56h2.76l3.27-12.56H91.72z"></path> <path class="st0" d="M101.84,171.36c-4.87,0.02-7.41,3.26-8.22,6.28c-0.96,3.58,0.95,6.28,4.43,6.28h2.34l0.68-2.56h-2.33 c-1.3,0-3.1-1.03-2.38-3.72c0.57-2.14,2.66-3.72,4.96-3.72h1.48l0.68-2.56H101.84z"></path> </g> <g> <path class="st0" d="M60.01,159.46v-5.03h0.48v1.11l-0.05,0.74l0.07,0.74v2.45H60.01z M61.91,158.14c-0.32,0-0.6-0.07-0.86-0.22 c-0.26-0.15-0.46-0.36-0.61-0.64c-0.15-0.28-0.23-0.62-0.23-1.02s0.07-0.74,0.22-1.02s0.35-0.49,0.61-0.63 c0.26-0.14,0.55-0.22,0.87-0.22c0.35,0,0.66,0.08,0.94,0.23c0.28,0.16,0.5,0.38,0.65,0.66s0.24,0.61,0.24,0.98 c0,0.37-0.08,0.7-0.24,0.98c-0.16,0.28-0.38,0.5-0.65,0.66C62.57,158.06,62.26,158.14,61.91,158.14z M61.87,157.69 c0.26,0,0.49-0.06,0.7-0.18c0.21-0.12,0.37-0.29,0.49-0.5c0.12-0.22,0.18-0.47,0.18-0.75c0-0.29-0.06-0.53-0.18-0.75 c-0.12-0.21-0.28-0.38-0.49-0.5c-0.21-0.12-0.44-0.18-0.7-0.18c-0.26,0-0.5,0.06-0.7,0.18c-0.21,0.12-0.37,0.29-0.49,0.5 c-0.12,0.21-0.18,0.46-0.18,0.75c0,0.28,0.06,0.54,0.18,0.75c0.12,0.22,0.28,0.39,0.49,0.5C61.38,157.64,61.61,157.69,61.87,157.69 z"></path> <path class="st0" d="M64.68,158.1v-3.67h0.48v1l-0.05-0.17c0.1-0.28,0.28-0.49,0.52-0.64c0.24-0.15,0.54-0.22,0.9-0.22v0.48 c-0.02,0-0.04,0-0.06,0s-0.04,0-0.06,0c-0.39,0-0.69,0.12-0.91,0.35c-0.22,0.24-0.33,0.57-0.33,1v1.88H64.68z"></path> <path class="st0" d="M68.86,158.14c-0.38,0-0.72-0.08-1.01-0.24c-0.29-0.16-0.52-0.38-0.68-0.67c-0.16-0.28-0.25-0.61-0.25-0.97 s0.08-0.69,0.23-0.97c0.16-0.28,0.37-0.5,0.64-0.66s0.58-0.24,0.92-0.24c0.35,0,0.65,0.08,0.92,0.23c0.27,0.16,0.48,0.38,0.63,0.66 c0.15,0.28,0.23,0.61,0.23,0.98c0,0.02,0,0.05,0,0.07s0,0.05,0,0.08h-3.2v-0.37h2.93l-0.2,0.15c0-0.27-0.06-0.5-0.17-0.71 c-0.11-0.21-0.27-0.37-0.47-0.49c-0.2-0.12-0.42-0.17-0.68-0.17c-0.25,0-0.48,0.06-0.68,0.17c-0.2,0.12-0.36,0.28-0.47,0.49 c-0.11,0.21-0.17,0.45-0.17,0.72v0.08c0,0.28,0.06,0.53,0.19,0.74c0.12,0.21,0.3,0.38,0.52,0.5c0.22,0.12,0.48,0.18,0.76,0.18 c0.22,0,0.43-0.04,0.63-0.12c0.19-0.08,0.36-0.2,0.5-0.36l0.28,0.32c-0.16,0.2-0.37,0.35-0.61,0.45S69.16,158.14,68.86,158.14z"></path> <path class="st0" d="M72.66,158.14c-0.3,0-0.59-0.04-0.86-0.13c-0.27-0.09-0.48-0.19-0.64-0.33l0.22-0.39 c0.15,0.11,0.34,0.21,0.57,0.29s0.48,0.12,0.73,0.12c0.35,0,0.6-0.05,0.76-0.16c0.15-0.11,0.23-0.26,0.23-0.44 c0-0.14-0.04-0.24-0.13-0.32c-0.09-0.08-0.2-0.14-0.34-0.17c-0.14-0.04-0.3-0.07-0.47-0.1c-0.17-0.03-0.34-0.06-0.51-0.1 c-0.17-0.04-0.33-0.09-0.47-0.16c-0.14-0.07-0.25-0.17-0.34-0.3s-0.13-0.29-0.13-0.5c0-0.2,0.06-0.38,0.17-0.54 c0.11-0.16,0.28-0.28,0.49-0.37c0.22-0.09,0.48-0.14,0.79-0.14c0.24,0,0.48,0.03,0.71,0.09c0.24,0.06,0.43,0.15,0.59,0.25 l-0.22,0.4c-0.16-0.11-0.34-0.19-0.52-0.24c-0.19-0.05-0.37-0.07-0.56-0.07c-0.33,0-0.58,0.06-0.73,0.17s-0.23,0.26-0.23,0.44 c0,0.14,0.04,0.25,0.13,0.33s0.2,0.14,0.34,0.19c0.14,0.04,0.3,0.08,0.47,0.11c0.17,0.03,0.34,0.06,0.51,0.1 c0.17,0.04,0.33,0.09,0.47,0.16c0.14,0.07,0.26,0.16,0.34,0.29c0.09,0.12,0.13,0.29,0.13,0.49c0,0.21-0.06,0.4-0.18,0.56 c-0.12,0.16-0.29,0.28-0.52,0.36C73.25,158.09,72.98,158.14,72.66,158.14z"></path> <path class="st0" d="M76.83,158.14c-0.38,0-0.72-0.08-1.01-0.24c-0.29-0.16-0.52-0.38-0.68-0.67c-0.16-0.28-0.25-0.61-0.25-0.97 s0.08-0.69,0.23-0.97c0.16-0.28,0.37-0.5,0.64-0.66s0.58-0.24,0.92-0.24c0.35,0,0.65,0.08,0.92,0.23c0.27,0.16,0.48,0.38,0.63,0.66 c0.15,0.28,0.23,0.61,0.23,0.98c0,0.02,0,0.05,0,0.07s0,0.05,0,0.08h-3.2v-0.37h2.93l-0.2,0.15c0-0.27-0.06-0.5-0.17-0.71 c-0.11-0.21-0.27-0.37-0.47-0.49c-0.2-0.12-0.42-0.17-0.68-0.17c-0.25,0-0.48,0.06-0.68,0.17c-0.2,0.12-0.36,0.28-0.47,0.49 c-0.11,0.21-0.17,0.45-0.17,0.72v0.08c0,0.28,0.06,0.53,0.19,0.74c0.12,0.21,0.3,0.38,0.52,0.5c0.22,0.12,0.48,0.18,0.76,0.18 c0.22,0,0.43-0.04,0.63-0.12c0.19-0.08,0.36-0.2,0.5-0.36l0.28,0.32c-0.16,0.2-0.37,0.35-0.61,0.45S77.12,158.14,76.83,158.14z"></path> <path class="st0" d="M81.29,154.39c0.3,0,0.56,0.06,0.79,0.17c0.23,0.11,0.4,0.29,0.53,0.52c0.13,0.23,0.19,0.53,0.19,0.88v2.13 h-0.5v-2.09c0-0.39-0.1-0.68-0.29-0.88c-0.19-0.2-0.46-0.3-0.82-0.3c-0.26,0-0.49,0.05-0.68,0.16c-0.19,0.11-0.34,0.26-0.45,0.46 s-0.16,0.44-0.16,0.72v1.93h-0.5v-3.67h0.48v1.01l-0.08-0.19c0.12-0.27,0.3-0.47,0.56-0.63C80.63,154.47,80.94,154.39,81.29,154.39 z"></path> <path class="st0" d="M83.49,154.84v-0.41h2.27v0.41H83.49z M85.23,158.14c-0.35,0-0.61-0.09-0.8-0.28s-0.28-0.45-0.28-0.79v-3.45 h0.5v3.42c0,0.21,0.05,0.38,0.16,0.5c0.11,0.12,0.27,0.18,0.47,0.18c0.22,0,0.4-0.06,0.55-0.19l0.17,0.36 c-0.1,0.09-0.22,0.15-0.35,0.2S85.37,158.14,85.23,158.14z"></path> <path class="st0" d="M88.4,158.14c-0.38,0-0.72-0.08-1.01-0.24c-0.29-0.16-0.52-0.38-0.68-0.67c-0.16-0.28-0.25-0.61-0.25-0.97 s0.08-0.69,0.23-0.97c0.16-0.28,0.37-0.5,0.64-0.66c0.27-0.16,0.58-0.24,0.92-0.24c0.34,0,0.65,0.08,0.92,0.23 c0.27,0.16,0.48,0.38,0.63,0.66c0.15,0.28,0.23,0.61,0.23,0.98c0,0.02,0,0.05,0,0.07c0,0.03,0,0.05,0,0.08h-3.2v-0.37h2.93 l-0.2,0.15c0-0.27-0.06-0.5-0.17-0.71c-0.11-0.21-0.27-0.37-0.47-0.49c-0.2-0.12-0.42-0.17-0.68-0.17c-0.25,0-0.48,0.06-0.68,0.17 c-0.2,0.12-0.36,0.28-0.47,0.49c-0.11,0.21-0.17,0.45-0.17,0.72v0.08c0,0.28,0.06,0.53,0.19,0.74c0.12,0.21,0.3,0.38,0.52,0.5 c0.22,0.12,0.47,0.18,0.76,0.18c0.22,0,0.43-0.04,0.63-0.12c0.19-0.08,0.36-0.2,0.5-0.36l0.28,0.32c-0.16,0.2-0.37,0.35-0.61,0.45 S88.69,158.14,88.4,158.14z"></path> <path class="st0" d="M92.59,158.14c-0.35,0-0.66-0.08-0.94-0.24c-0.28-0.16-0.5-0.38-0.66-0.66c-0.16-0.28-0.24-0.61-0.24-0.98 c0-0.37,0.08-0.7,0.24-0.98c0.16-0.28,0.38-0.5,0.66-0.65c0.28-0.16,0.59-0.23,0.94-0.23c0.32,0,0.61,0.07,0.86,0.22 c0.25,0.14,0.46,0.36,0.61,0.63c0.15,0.28,0.23,0.62,0.23,1.02c0,0.4-0.08,0.73-0.22,1.01s-0.35,0.49-0.61,0.64 C93.21,158.06,92.92,158.14,92.59,158.14z M92.63,157.69c0.26,0,0.5-0.06,0.7-0.18c0.21-0.12,0.37-0.29,0.49-0.5 c0.12-0.22,0.18-0.47,0.18-0.75c0-0.29-0.06-0.54-0.18-0.76s-0.28-0.38-0.49-0.5s-0.44-0.18-0.7-0.18c-0.26,0-0.49,0.06-0.69,0.18 s-0.37,0.29-0.49,0.5s-0.18,0.47-0.18,0.76c0,0.28,0.06,0.54,0.18,0.75c0.12,0.22,0.29,0.39,0.49,0.5 C92.14,157.64,92.37,157.69,92.63,157.69z M94.01,158.1v-1.11l0.05-0.74l-0.07-0.74v-2.6h0.5v5.19H94.01z"></path> <path class="st0" d="M97.71,158.1v-5.19h0.5v2.6l-0.07,0.74l0.05,0.74v1.11H97.71z M99.61,158.14c-0.32,0-0.61-0.07-0.87-0.22 c-0.26-0.15-0.46-0.36-0.61-0.64s-0.22-0.62-0.22-1.01c0-0.4,0.08-0.74,0.23-1.02c0.15-0.28,0.36-0.49,0.61-0.63 c0.26-0.14,0.54-0.22,0.86-0.22c0.35,0,0.66,0.08,0.94,0.23c0.28,0.16,0.5,0.38,0.65,0.65c0.16,0.28,0.24,0.61,0.24,0.98 c0,0.37-0.08,0.69-0.24,0.98c-0.16,0.28-0.38,0.5-0.65,0.66C100.27,158.06,99.96,158.14,99.61,158.14z M99.57,157.69 c0.26,0,0.5-0.06,0.7-0.18c0.21-0.12,0.37-0.29,0.49-0.5c0.12-0.22,0.18-0.47,0.18-0.75c0-0.29-0.06-0.54-0.18-0.76 s-0.29-0.38-0.49-0.5s-0.44-0.18-0.7-0.18c-0.26,0-0.5,0.06-0.7,0.18s-0.37,0.29-0.49,0.5s-0.18,0.47-0.18,0.76 c0,0.28,0.06,0.54,0.18,0.75c0.12,0.22,0.28,0.39,0.49,0.5C99.08,157.64,99.31,157.69,99.57,157.69z"></path> <path class="st0" d="M102.55,159.49c-0.17,0-0.34-0.03-0.49-0.08c-0.16-0.06-0.29-0.14-0.4-0.25l0.23-0.37 c0.09,0.09,0.2,0.16,0.3,0.21s0.23,0.07,0.37,0.07c0.16,0,0.3-0.04,0.42-0.14c0.12-0.09,0.23-0.25,0.34-0.48l0.24-0.54l0.06-0.08 l1.51-3.41h0.49l-1.84,4.12c-0.1,0.24-0.22,0.43-0.34,0.57c-0.12,0.14-0.26,0.24-0.4,0.3S102.73,159.49,102.55,159.49z M103.53,158.21l-1.69-3.78h0.52l1.5,3.37L103.53,158.21z"></path> </g> <g> <rect y="200.72" class="st1" width="164.94" height="22.42"></rect> <path class="st0" d="M9.2,207c1.42,0,2.44,0.45,3.4,1.31c0.13,0.11,0.13,0.28,0.01,0.39l-0.86,0.89c-0.1,0.11-0.24,0.11-0.35,0 c-0.59-0.52-1.38-0.82-2.16-0.82c-1.8,0-3.13,1.5-3.13,3.27s1.35,3.25,3.15,3.25c0.85,0,1.56-0.32,2.15-0.8 c0.11-0.1,0.27-0.08,0.35,0l0.88,0.9c0.11,0.1,0.08,0.28-0.01,0.38c-0.96,0.93-2.16,1.36-3.41,1.36c-2.81,0-5.07-2.23-5.07-5.04 c0-2.81,2.26-5.07,5.07-5.07H9.2z"></path> <path class="st0" d="M15.99,216.62l4.37-9.46c0.04-0.08,0.11-0.15,0.24-0.15h0.14c0.14,0,0.2,0.07,0.24,0.15l4.33,9.46 c0.08,0.18-0.03,0.36-0.24,0.36h-1.23c-0.21,0-0.31-0.08-0.41-0.28l-0.68-1.52h-4.21l-0.68,1.52c-0.06,0.14-0.18,0.28-0.41,0.28 h-1.23c-0.21,0-0.32-0.18-0.24-0.36H15.99z M22.05,213.62l-1.41-3.09H20.6l-1.38,3.09H22.05z"></path> <path class="st0" d="M29.39,207.27c0-0.14,0.13-0.25,0.27-0.25h0.35l5.85,6.21h0.01v-5.81c0-0.14,0.11-0.27,0.27-0.27h1.29 c0.14,0,0.27,0.13,0.27,0.27v9.46c0,0.14-0.13,0.25-0.27,0.25h-0.34l-5.88-6.45H31.2v6.05c0,0.14-0.11,0.27-0.27,0.27h-1.28 c-0.14,0-0.27-0.13-0.27-0.27v-9.46H29.39z"></path> <path class="st0" d="M43.06,207.42c0-0.14,0.11-0.27,0.25-0.27h3.33c2.72,0,4.93,2.2,4.93,4.9c0,2.7-2.22,4.93-4.93,4.93h-3.33 c-0.14,0-0.25-0.13-0.25-0.27v-9.31V207.42z M46.47,215.27c1.83,0,3.16-1.38,3.16-3.22c0-1.84-1.34-3.2-3.16-3.2h-1.6v6.42H46.47z"></path> <path class="st0" d="M56.24,207.42c0-0.14,0.13-0.27,0.27-0.27h1.31c0.14,0,0.27,0.13,0.27,0.27v9.31c0,0.14-0.13,0.27-0.27,0.27 h-1.31c-0.14,0-0.27-0.13-0.27-0.27V207.42z"></path> <path class="st0" d="M63.45,207.42c0-0.14,0.11-0.27,0.25-0.27h3.33c2.72,0,4.93,2.2,4.93,4.9c0,2.7-2.22,4.93-4.93,4.93h-3.33 c-0.14,0-0.25-0.13-0.25-0.27v-9.31V207.42z M66.87,215.27c1.83,0,3.16-1.38,3.16-3.22c0-1.84-1.34-3.2-3.16-3.2h-1.6v6.42H66.87z"></path> <path class="st0" d="M75.28,216.62l4.37-9.46c0.04-0.08,0.11-0.15,0.24-0.15h0.14c0.14,0,0.2,0.07,0.24,0.15l4.33,9.46 c0.08,0.18-0.03,0.36-0.24,0.36h-1.23c-0.21,0-0.31-0.08-0.41-0.28l-0.68-1.52h-4.21l-0.68,1.52c-0.06,0.14-0.18,0.28-0.41,0.28 H75.5c-0.21,0-0.32-0.18-0.24-0.36H75.28z M81.34,213.62l-1.41-3.09h-0.04l-1.38,3.09H81.34z"></path> <path class="st0" d="M89.48,208.83h-2.15c-0.15,0-0.27-0.13-0.27-0.27v-1.16c0-0.14,0.11-0.27,0.27-0.27h6.14 c0.15,0,0.27,0.13,0.27,0.27v1.16c0,0.14-0.11,0.27-0.27,0.27h-2.15v7.89c0,0.14-0.13,0.27-0.27,0.27h-1.31 c-0.14,0-0.27-0.13-0.27-0.27v-7.89H89.48z"></path> <path class="st0" d="M98.01,207.42c0-0.14,0.11-0.27,0.27-0.27H104c0.15,0,0.27,0.13,0.27,0.27v1.16c0,0.14-0.11,0.27-0.27,0.27 h-4.16v2.3h3.47c0.14,0,0.27,0.13,0.27,0.27v1.17c0,0.15-0.13,0.27-0.27,0.27h-3.47v2.45H104c0.15,0,0.27,0.13,0.27,0.27v1.16 c0,0.14-0.11,0.27-0.27,0.27h-5.71c-0.15,0-0.27-0.13-0.27-0.27v-9.31V207.42z"></path> <path class="st0" d="M115.01,207.42c0-0.14,0.11-0.27,0.27-0.27h4.01c1.69,0,3.06,1.35,3.06,3.02c0,1.29-0.86,2.34-2.08,2.84 l1.92,3.57c0.1,0.18,0,0.41-0.24,0.41h-1.48c-0.13,0-0.2-0.07-0.22-0.13l-1.87-3.72h-1.56v3.58c0,0.14-0.13,0.27-0.27,0.27h-1.29 c-0.15,0-0.27-0.13-0.27-0.27v-9.31L115.01,207.42z M119.14,211.63c0.74,0,1.39-0.64,1.39-1.43c0-0.74-0.64-1.36-1.39-1.36h-2.29 v2.8h2.29V211.63z"></path> <path class="st0" d="M125.89,216.62l4.37-9.46c0.04-0.08,0.11-0.15,0.24-0.15h0.14c0.14,0,0.2,0.07,0.24,0.15l4.33,9.46 c0.08,0.18-0.03,0.36-0.24,0.36h-1.23c-0.21,0-0.31-0.08-0.41-0.28l-0.68-1.52h-4.21l-0.68,1.52c-0.06,0.14-0.18,0.28-0.41,0.28 h-1.23c-0.21,0-0.32-0.18-0.24-0.36H125.89z M131.96,213.62l-1.41-3.09h-0.04l-1.38,3.09H131.96z"></path> <path class="st0" d="M143.59,207c1.42,0,2.44,0.45,3.4,1.31c0.13,0.11,0.13,0.28,0.01,0.39l-0.86,0.89c-0.1,0.11-0.24,0.11-0.35,0 c-0.59-0.52-1.38-0.82-2.16-0.82c-1.8,0-3.13,1.5-3.13,3.27s1.35,3.25,3.15,3.25c0.85,0,1.56-0.32,2.15-0.8 c0.11-0.1,0.27-0.08,0.35,0l0.88,0.9c0.11,0.1,0.08,0.28-0.01,0.38c-0.96,0.93-2.16,1.36-3.41,1.36c-2.81,0-5.07-2.23-5.07-5.04 c0-2.81,2.26-5.07,5.07-5.07H143.59z"></path> <path class="st0" d="M151.66,207.42c0-0.14,0.11-0.27,0.27-0.27h5.71c0.15,0,0.27,0.13,0.27,0.27v1.16c0,0.14-0.11,0.27-0.27,0.27 h-4.16v2.3h3.47c0.14,0,0.27,0.13,0.27,0.27v1.17c0,0.15-0.13,0.27-0.27,0.27h-3.47v2.45h4.16c0.15,0,0.27,0.13,0.27,0.27v1.16 c0,0.14-0.11,0.27-0.27,0.27h-5.71c-0.15,0-0.27-0.13-0.27-0.27v-9.31V207.42z"></path> </g> <g> <path class="st1" d="M3.47,235.13c-1.92,0-3.47,1.56-3.47,3.47v7.01c0,1.92,1.56,3.47,3.47,3.47h19.22c1.92,0,3.47-1.56,3.47-3.47 v-13.98c0-1.92-1.56-3.47-3.47-3.47H0v3.48h21.55c0.62,0,1.13,0.5,1.13,1.13v11.71c0,0.62-0.5,1.13-1.13,1.13H4.61 c-0.62,0-1.13-0.5-1.13-1.13v-4.74c0-0.62,0.5-1.13,1.13-1.13H19.2v-3.48H3.47z"></path> <path class="st1" d="M67.01,231.27h-3.8c-0.09,0-0.16,0.08-0.16,0.16v0.94c0,0.08,0.07,0.16,0.16,0.16h1.23v4.57 c0,0.09,0.08,0.16,0.16,0.16h1.03c0.08,0,0.16-0.08,0.16-0.16v-4.57h1.23c0.09,0,0.16-0.08,0.16-0.16v-0.94 C67.17,231.34,67.1,231.27,67.01,231.27"></path> <path class="st1" d="M61.43,231.27h-3.8c-0.09,0-0.16,0.08-0.16,0.16v0.94c0,0.08,0.07,0.16,0.16,0.16h1.23v4.57 c0,0.09,0.08,0.16,0.16,0.16h1.03c0.08,0,0.16-0.08,0.16-0.16v-4.57h1.23c0.09,0,0.16-0.08,0.16-0.16v-0.94 C61.59,231.34,61.52,231.27,61.43,231.27"></path> <path class="st1" d="M53.23,231.18c-1.71,0-3.07,1.38-3.07,3.09s1.36,3.07,3.07,3.07s3.08-1.36,3.08-3.07 S54.94,231.18,53.23,231.18 M53.23,235.97c-0.94,0-1.7-0.77-1.7-1.7s0.77-1.72,1.7-1.72c0.93,0,1.71,0.77,1.71,1.72 S54.17,235.97,53.23,235.97"></path> <path class="st1" d="M47.6,234.21c0.4-0.21,1-0.69,1-1.35c0-0.9-0.83-1.59-1.84-1.59h-1.99c-0.09,0-0.16,0.08-0.16,0.16v5.66 c0,0.09,0.07,0.16,0.16,0.16h2.12c1.02,0,1.86-0.69,1.86-1.65C48.75,234.83,48.05,234.4,47.6,234.21z M45.93,232.5h0.66 c0.32,0,0.59,0.24,0.59,0.58s-0.27,0.61-0.59,0.61h-0.66V232.5z M46.7,236.03h-0.77v-1.23h0.69c0.33,0,0.7,0.26,0.7,0.6 c0,0.34-0.28,0.62-0.61,0.62H46.7z"></path> <path class="st1" d="M41.67,234.21c0.4-0.21,1-0.69,1-1.35c0-0.9-0.83-1.59-1.84-1.59h-1.99c-0.09,0-0.16,0.08-0.16,0.16v5.66 c0,0.09,0.07,0.16,0.16,0.16h2.12c1.02,0,1.86-0.69,1.86-1.65C42.82,234.83,42.13,234.4,41.67,234.21z M40,232.5h0.66 c0.32,0,0.59,0.24,0.59,0.58s-0.27,0.61-0.59,0.61H40V232.5z M40.78,236.03H40v-1.23h0.69c0.33,0,0.7,0.26,0.7,0.6 c0,0.34-0.28,0.62-0.61,0.62H40.78z"></path> <path class="st1" d="M34.6,231.28c-0.03-0.05-0.08-0.09-0.14-0.09h-0.08c-0.06,0-0.12,0.04-0.14,0.09l-2.68,5.75 c-0.05,0.11,0.02,0.22,0.14,0.22h0.95c0.17,0,0.26-0.1,0.31-0.2l0.31-0.68h2.32l0.31,0.67c0.08,0.16,0.14,0.21,0.3,0.21h0.95 c0.13,0,0.2-0.11,0.14-0.22l-2.68-5.75H34.6z M33.76,235.2l0.64-1.41l0.65,1.41H33.76z"></path> <path class="st1" d="M60.21,244.73v-3.46h0.81c0.97,0,1.66,0.76,1.66,1.72s-0.7,1.73-1.66,1.73h-0.81V244.73z M58.88,245.82 c0,0.08,0.07,0.16,0.15,0.16h2.08c1.65,0,3-1.34,3-3s-1.35-2.98-3-2.98h-2.08c-0.09,0-0.15,0.08-0.15,0.16V245.82z M53.74,245.82 c0,0.08,0.07,0.16,0.16,0.16h3.21c0.09,0,0.16-0.08,0.16-0.16v-0.94c0-0.09-0.07-0.16-0.16-0.16h-2.03v-4.56 c0-0.08-0.08-0.16-0.16-0.16H53.9c-0.09,0-0.16,0.08-0.16,0.16V245.82z M48.5,242.56v-1.33h1.27c0.35,0,0.65,0.29,0.65,0.65 s-0.3,0.68-0.65,0.68H48.5V242.56z M47.17,245.82c0,0.08,0.07,0.16,0.16,0.16h1.02c0.08,0,0.16-0.08,0.16-0.16v-2.17h0.59 l1.14,2.26c0,0,0.07,0.08,0.14,0.08h1.14c0.14,0,0.2-0.14,0.14-0.25l-1.17-2.17c0.74-0.3,1.27-0.94,1.27-1.72 c0-1.02-0.84-1.84-1.86-1.84h-2.56c-0.09,0-0.16,0.08-0.16,0.16v5.65H47.17z M40.92,243.01c0-0.94,0.76-1.72,1.7-1.72 c0.94,0,1.71,0.77,1.71,1.72c0,0.95-0.76,1.7-1.71,1.7C41.67,244.71,40.92,243.94,40.92,243.01 M39.55,243.01 c0,1.71,1.36,3.07,3.07,3.07c1.71,0,3.08-1.36,3.08-3.07c0-1.71-1.37-3.08-3.08-3.08C40.91,239.93,39.55,241.31,39.55,243.01 M33.28,245.95c0.02,0.07,0.08,0.12,0.15,0.12h0.14c0.06,0,0.12-0.04,0.14-0.09l1.55-3.49h0.03l1.56,3.49 c0.03,0.05,0.08,0.09,0.14,0.09h0.14c0.07,0,0.14-0.05,0.15-0.12l1.61-5.73c0.03-0.12-0.03-0.2-0.15-0.2h-1 c-0.07,0-0.14,0.06-0.15,0.12l-0.73,2.9h-0.03l-1.33-3.01c-0.02-0.05-0.07-0.09-0.14-0.09h-0.15c-0.07,0-0.12,0.04-0.14,0.09 l-1.33,3.01h-0.03l-0.73-2.9c-0.02-0.06-0.08-0.12-0.15-0.12h-1c-0.12,0-0.19,0.08-0.15,0.2l1.61,5.73H33.28z"></path> <path class="st1" d="M161.01,245.42c0.2,0.2,0.81,0.65,1.92,0.65c1.26,0,2.01-0.89,2.01-1.77c0-1.16-1.06-1.68-1.72-1.94 c-0.67-0.27-0.93-0.51-0.93-0.83c0-0.23,0.23-0.43,0.53-0.43c0.52,0,1.15,0.47,1.22,0.51c0.08,0.06,0.23-0.02,0.29-0.11l0.43-0.65 c0.03-0.06,0.05-0.21-0.05-0.27c-0.25-0.19-0.94-0.64-1.83-0.64c-1.32,0-1.97,0.86-1.97,1.7c0,1.03,0.93,1.6,1.66,1.89 c0.58,0.23,0.88,0.5,0.88,0.87c0,0.3-0.25,0.51-0.59,0.51c-0.56,0-1.18-0.45-1.22-0.47c-0.06-0.04-0.22-0.06-0.29,0.05l-0.4,0.7 c-0.07,0.12-0.04,0.15,0.04,0.24L161.01,245.42z M155.85,242.57v-1.33h1.27c0.35,0,0.64,0.29,0.64,0.64c0,0.35-0.3,0.68-0.64,0.68 H155.85z M154.6,245.83c0,0.08,0.07,0.16,0.16,0.16h1.02c0.08,0,0.16-0.08,0.16-0.16v-2.17h0.59l1.14,2.26c0,0,0.07,0.08,0.14,0.08 h1.14c0.15,0,0.2-0.14,0.15-0.25l-1.17-2.17c0.74-0.3,1.27-0.93,1.27-1.72c0-1.02-0.84-1.84-1.86-1.84h-2.56 c-0.09,0-0.16,0.08-0.16,0.16v5.65H154.6z M148.12,243.02c0-0.94,0.76-1.72,1.7-1.72c0.94,0,1.71,0.77,1.71,1.72 c0,0.95-0.76,1.7-1.71,1.7C148.87,244.72,148.12,243.95,148.12,243.02 M146.75,243.02c0,1.71,1.36,3.07,3.07,3.07 c1.71,0,3.07-1.36,3.07-3.07s-1.37-3.08-3.07-3.08C148.12,239.94,146.75,241.32,146.75,243.02 M141.8,245.46 c0.14,0.18,0.55,0.62,1.3,0.62c1,0,1.83-0.68,1.83-1.87v-4.03c0-0.09-0.07-0.16-0.16-0.16h-1.05c-0.09,0-0.16,0.08-0.16,0.16v4.02 c0,0.42-0.26,0.64-0.5,0.64c-0.24,0-0.33-0.08-0.43-0.18c-0.07-0.07-0.16-0.06-0.23,0l-0.58,0.57c-0.05,0.06-0.06,0.14-0.02,0.21 L141.8,245.46z M137.31,243.95l0.64-1.41l0.65,1.41H137.31z M135.25,246h0.94c0.17,0,0.26-0.1,0.31-0.2l0.31-0.68h2.32l0.31,0.67 c0.08,0.16,0.14,0.21,0.3,0.21h0.95c0.13,0,0.2-0.11,0.14-0.22l-2.68-5.74c-0.03-0.05-0.08-0.09-0.14-0.09h-0.08 c-0.06,0-0.12,0.04-0.14,0.09l-2.68,5.74c-0.05,0.11,0.02,0.22,0.14,0.22H135.25z M127.22,245.81c-0.02,0.11,0.06,0.19,0.16,0.19 h1.01c0.08,0,0.15-0.07,0.16-0.14l0.37-2.64h0.02l1.44,2.77c0.03,0.05,0.09,0.09,0.14,0.09h0.15c0,0,0.12-0.04,0.14-0.09l1.44-2.77 h0.02l0.38,2.64c0,0.07,0.08,0.14,0.16,0.14h1.01c0.1,0,0.18-0.08,0.16-0.19l-0.97-5.73c0-0.08-0.08-0.14-0.15-0.14h-0.14 c0,0-0.12,0.03-0.14,0.08l-1.98,3.69h-0.02l-1.98-3.69c-0.03-0.05-0.1-0.08-0.14-0.08h-0.14c-0.07,0-0.14,0.06-0.15,0.14 l-0.97,5.73H127.22z"></path> <path class="st1" d="M116.48,245.82c0,0.08,0.08,0.16,0.16,0.16h1.02c0.09,0,0.16-0.08,0.16-0.16v-3.19l3.37,3.39 c0,0,0.08,0.04,0.11,0.04h0.14c0.08,0,0.16-0.07,0.16-0.15v-5.74c0-0.08-0.08-0.16-0.16-0.16h-1.03c-0.09,0-0.16,0.08-0.16,0.16 v3.03l-3.41-3.28h-0.21c-0.08,0-0.16,0.07-0.16,0.15v5.74L116.48,245.82z M110.05,243.01c0-0.94,0.76-1.72,1.7-1.72 c0.94,0,1.71,0.77,1.71,1.72c0,0.95-0.76,1.7-1.71,1.7C110.8,244.71,110.05,243.94,110.05,243.01 M108.68,243.01 c0,1.71,1.36,3.07,3.07,3.07c1.71,0,3.07-1.36,3.07-3.07c0-1.71-1.37-3.08-3.07-3.08C110.05,239.93,108.68,241.31,108.68,243.01 M101.9,245.82c0,0.08,0.08,0.16,0.16,0.16h1.02c0.09,0,0.16-0.08,0.16-0.16v-2.24h2.44v2.24c0,0.08,0.07,0.16,0.16,0.16h1.02 c0.09,0,0.16-0.08,0.16-0.16v-5.65c0-0.08-0.08-0.16-0.16-0.16h-1.02c-0.09,0-0.16,0.08-0.16,0.16v2.15h-2.44v-2.15 c0-0.08-0.07-0.16-0.16-0.16h-1.02c-0.08,0-0.16,0.08-0.16,0.16V245.82z M97.33,245.82c0,0.08,0.08,0.16,0.16,0.16h1.03 c0.09,0,0.16-0.08,0.16-0.16v-4.56h1.22c0.09,0,0.16-0.08,0.16-0.16v-0.93c0-0.08-0.07-0.16-0.16-0.16H96.1 c-0.09,0-0.16,0.08-0.16,0.16v0.93c0,0.09,0.07,0.16,0.16,0.16h1.22v4.56H97.33z M91.52,243.93l0.64-1.41l0.64,1.41h-1.3H91.52z M89.46,245.98h0.94c0.17,0,0.26-0.1,0.31-0.2l0.31-0.68h2.32l0.3,0.67c0.08,0.16,0.15,0.21,0.3,0.21h0.95 c0.13,0,0.19-0.11,0.14-0.22l-2.68-5.74c-0.03-0.05-0.08-0.09-0.14-0.09h-0.08c-0.06,0-0.12,0.04-0.14,0.09l-2.68,5.74 C89.27,245.87,89.34,245.98,89.46,245.98z M84.88,242.56v-1.33h1.27c0.35,0,0.65,0.29,0.65,0.64c0,0.35-0.3,0.68-0.65,0.68H84.88z M83.55,245.82c0,0.08,0.07,0.16,0.16,0.16h1.02c0.08,0,0.16-0.08,0.16-0.16v-2.17h0.59l1.14,2.26c0,0,0.07,0.08,0.14,0.08h1.14 c0.14,0,0.2-0.14,0.14-0.25l-1.17-2.17c0.74-0.3,1.27-0.94,1.27-1.72c0-1.02-0.84-1.84-1.86-1.84h-2.56 c-0.09,0-0.16,0.08-0.16,0.16v5.65H83.55z M78.37,243.93l0.64-1.41l0.65,1.41H78.37z M76.3,245.98h0.94c0.17,0,0.26-0.1,0.31-0.2 l0.31-0.68h2.32l0.3,0.67c0.08,0.16,0.15,0.21,0.3,0.21h0.95c0.13,0,0.19-0.11,0.14-0.22l-2.68-5.74 c-0.03-0.05-0.08-0.09-0.14-0.09h-0.08c-0.06,0-0.12,0.04-0.14,0.09l-2.68,5.74C76.11,245.87,76.18,245.98,76.3,245.98z M68.27,245.79c-0.02,0.11,0.06,0.19,0.16,0.19h1.01c0.08,0,0.15-0.07,0.16-0.14l0.37-2.64h0.02l1.44,2.77 c0.03,0.05,0.09,0.09,0.14,0.09h0.15c0,0,0.12-0.04,0.14-0.09l1.44-2.77h0.02l0.38,2.64c0,0.07,0.08,0.14,0.16,0.14h1.01 c0.1,0,0.18-0.08,0.16-0.19l-0.97-5.73c0-0.08-0.08-0.14-0.15-0.14h-0.14c0,0-0.12,0.03-0.14,0.09l-1.98,3.69h-0.02l-1.98-3.69 c-0.03-0.05-0.1-0.09-0.14-0.09h-0.14c-0.07,0-0.14,0.06-0.15,0.14l-0.97,5.73H68.27z"></path> </g> </svg> 